<?xml version="1.0" encoding="utf-8"?>
<!-- Generator: Adobe Illustrator 27.0.0, SVG Export Plug-In . SVG Version: 6.00 Build 0)  -->
<svg version="1.1" id="Layer_1" xmlns="http://www.w3.org/2000/svg" xmlns:xlink="http://www.w3.org/1999/xlink" x="0px" y="0px"
	 viewBox="0 0 280 100" style="enable-background:new 0 0 280 100;" xml:space="preserve">
<style type="text/css">
	.st0{fill:#217EB3;}
	.st1{fill:#D32938;}
	.st2{fill:#2D9FD6;}
	.st3{fill:#D42106;}
	.st4{fill:#BC202F;}
	.st5{fill:#2390BD;}
	.st6{fill-rule:evenodd;clip-rule:evenodd;fill:#D32938;}
	.st7{fill-rule:evenodd;clip-rule:evenodd;fill:#2D9FD6;}
	.st8{fill-rule:evenodd;clip-rule:evenodd;fill:#217EB3;}
</style>
<g>
	<g>
		<path class="st0" d="M186.88,49.45c-1.19,0-2.19,0.34-3,1.01s-1.3,1.6-1.48,2.77h8.94c-0.18-1.15-0.67-2.06-1.48-2.73
			C189.04,49.8,188.05,49.45,186.88,49.45z M196.3,54.88c0,0.07-0.03,0.54-0.1,1.42h-13.73c0.25,1.12,0.83,2.01,1.75,2.67
			c0.92,0.65,2.07,0.98,3.44,0.98c0.94,0,1.78-0.13,2.5-0.4c0.74-0.29,1.43-0.74,2.06-1.35l2.8,3.04c-1.71,1.96-4.21,2.94-7.49,2.94
			c-2.05,0-3.86-0.39-5.43-1.18c-1.57-0.81-2.79-1.92-3.64-3.34c-0.85-1.42-1.28-3.03-1.28-4.83c0-1.78,0.42-3.37,1.25-4.79
			c0.85-1.44,2.01-2.55,3.48-3.34c1.48-0.81,3.14-1.21,4.96-1.21c1.78,0,3.39,0.38,4.83,1.15c1.44,0.76,2.56,1.87,3.37,3.31
			C195.88,51.34,196.3,52.99,196.3,54.88z M167.58,64.16c-1.93,0-3.68-0.39-5.23-1.18c-1.53-0.81-2.73-1.92-3.61-3.34
			c-0.85-1.42-1.28-3.03-1.28-4.83c0-1.8,0.43-3.41,1.28-4.83c0.88-1.42,2.08-2.52,3.61-3.31c1.55-0.81,3.3-1.21,5.23-1.21
			c1.91,0,3.58,0.4,4.99,1.21c1.44,0.79,2.49,1.92,3.14,3.41l-4.08,2.19c-0.94-1.66-2.31-2.5-4.08-2.5c-1.37,0-2.51,0.45-3.41,1.35
			c-0.9,0.9-1.35,2.13-1.35,3.68c0,1.55,0.45,2.78,1.35,3.68c0.9,0.9,2.04,1.35,3.41,1.35c1.8,0,3.16-0.83,4.08-2.5l4.08,2.23
			c-0.65,1.44-1.7,2.56-3.14,3.37C171.16,63.76,169.49,64.16,167.58,64.16z M149.6,48.13c0.63-0.88,1.47-1.54,2.53-1.99
			c1.08-0.45,2.32-0.67,3.71-0.67v4.86c-0.58-0.04-0.98-0.07-1.18-0.07c-1.51,0-2.69,0.43-3.54,1.28c-0.85,0.83-1.28,2.09-1.28,3.78
			v8.57h-5.26V45.74h5.03V48.13z M139.69,45.74v18.16h-4.99v-2.16c-0.7,0.79-1.53,1.39-2.5,1.82c-0.97,0.4-2.01,0.61-3.14,0.61
			c-2.38,0-4.27-0.69-5.67-2.06c-1.39-1.37-2.09-3.41-2.09-6.11V45.74h5.26v9.48c0,2.92,1.23,4.39,3.68,4.39
			c1.26,0,2.27-0.4,3.04-1.21c0.76-0.83,1.15-2.06,1.15-3.68v-8.98H139.69z M107.93,59.84c1.35,0,2.45-0.45,3.31-1.35
			c0.88-0.92,1.32-2.15,1.32-3.68c0-1.53-0.44-2.74-1.32-3.64c-0.85-0.92-1.96-1.38-3.31-1.38s-2.46,0.46-3.34,1.38
			c-0.88,0.9-1.32,2.11-1.32,3.64c0,1.53,0.44,2.76,1.32,3.68C105.46,59.39,106.58,59.84,107.93,59.84z M107.93,64.16
			c-1.91,0-3.63-0.39-5.16-1.18c-1.51-0.81-2.69-1.92-3.54-3.34c-0.85-1.42-1.28-3.03-1.28-4.83c0-1.8,0.43-3.41,1.28-4.83
			s2.04-2.52,3.54-3.31c1.53-0.81,3.25-1.21,5.16-1.21s3.62,0.4,5.13,1.21c1.51,0.79,2.69,1.89,3.54,3.31s1.28,3.03,1.28,4.83
			c0,1.8-0.43,3.41-1.28,4.83c-0.85,1.42-2.04,2.53-3.54,3.34C111.55,63.77,109.84,64.16,107.93,64.16z M85.9,64.3
			c-1.87,0-3.68-0.25-5.43-0.74c-1.73-0.52-3.13-1.18-4.18-1.99l1.86-4.12c1.01,0.74,2.22,1.34,3.61,1.79
			c1.39,0.45,2.79,0.67,4.18,0.67c1.55,0,2.7-0.22,3.44-0.67c0.74-0.47,1.11-1.09,1.11-1.86c0-0.56-0.22-1.02-0.67-1.38
			c-0.43-0.38-0.99-0.69-1.69-0.91c-0.67-0.22-1.6-0.47-2.77-0.74c-1.8-0.43-3.27-0.85-4.42-1.28c-1.15-0.43-2.14-1.11-2.97-2.06
			c-0.81-0.94-1.21-2.2-1.21-3.78c0-1.37,0.37-2.61,1.11-3.71c0.74-1.12,1.86-2.01,3.34-2.67c1.51-0.65,3.34-0.98,5.5-0.98
			c1.51,0,2.98,0.18,4.42,0.54c1.44,0.36,2.7,0.88,3.78,1.55l-1.69,4.15c-2.18-1.24-4.36-1.86-6.55-1.86
			c-1.53,0-2.67,0.25-3.41,0.74c-0.72,0.49-1.08,1.15-1.08,1.96c0,0.81,0.42,1.42,1.25,1.82c0.85,0.38,2.15,0.76,3.88,1.15
			c1.8,0.43,3.27,0.85,4.42,1.28c1.15,0.43,2.13,1.1,2.94,2.02c0.83,0.92,1.25,2.17,1.25,3.75c0,1.35-0.38,2.59-1.15,3.71
			c-0.74,1.1-1.87,1.98-3.37,2.63C89.89,63.97,88.06,64.3,85.9,64.3z"/>
		<path class="st1" d="M264.93,61.26c1.24,0,2.36-0.28,3.37-0.84c1.01-0.58,1.8-1.41,2.36-2.46c0.58-1.06,0.88-2.26,0.88-3.61
			c0-1.35-0.29-2.55-0.88-3.61c-0.56-1.06-1.35-1.87-2.36-2.43c-1.01-0.58-2.14-0.88-3.37-0.88c-1.26,0-2.4,0.29-3.41,0.88
			c-0.99,0.56-1.78,1.37-2.36,2.43c-0.56,1.06-0.84,2.26-0.84,3.61c0,1.35,0.28,2.55,0.84,3.61c0.58,1.06,1.37,1.88,2.36,2.46
			C262.53,60.98,263.67,61.26,264.93,61.26z M265.09,45.33c1.66,0,3.17,0.38,4.52,1.15c1.35,0.74,2.41,1.8,3.17,3.17
			s1.15,2.94,1.15,4.69c0,1.75-0.38,3.32-1.15,4.69c-0.76,1.37-1.82,2.44-3.17,3.21c-1.35,0.76-2.86,1.15-4.52,1.15
			c-1.48,0-2.82-0.31-4.02-0.94c-1.17-0.63-2.11-1.54-2.83-2.73v3.51h-2.29V38.18h2.4v10.66c0.74-1.15,1.69-2.01,2.83-2.6
			C262.35,45.63,263.65,45.33,265.09,45.33z M249.24,45.47v17.75h-2.29v-3.24c-0.63,1.08-1.5,1.92-2.6,2.53
			c-1.1,0.58-2.36,0.88-3.78,0.88c-2.32,0-4.15-0.64-5.5-1.92c-1.33-1.3-1.99-3.21-1.99-5.7V45.47h2.4v10.06
			c0,1.87,0.46,3.28,1.38,4.25c0.92,0.97,2.24,1.45,3.95,1.45c1.87,0,3.34-0.56,4.42-1.69c1.08-1.15,1.62-2.73,1.62-4.76v-9.31
			H249.24z M226.04,39.59v23.62h-2.46v-10.9h-14.78v10.9h-2.5V39.59h2.5v10.53h14.78V39.59H226.04z"/>
		<g>
			<path class="st2" d="M105.55,27.29c-0.45,0-0.82,0.13-1.13,0.38c-0.3,0.25-0.49,0.6-0.56,1.04h3.36
				c-0.07-0.43-0.25-0.77-0.56-1.03C106.36,27.42,105.99,27.29,105.55,27.29z"/>
			<path class="st2" d="M89.72,21.82L78.6,34.49h45.23l11.12-12.67H89.72z M100.45,32.72h-1.68l-4.42-5.38v5.38h-2.03v-8.87h1.7
				l4.41,5.38v-5.38h2.03V32.72z M109.05,29.87h-5.16c0.09,0.42,0.31,0.76,0.66,1c0.35,0.24,0.78,0.37,1.29,0.37
				c0.35,0,0.67-0.05,0.94-0.15c0.28-0.11,0.54-0.28,0.77-0.51l1.05,1.14c-0.64,0.73-1.58,1.1-2.81,1.1c-0.77,0-1.45-0.15-2.04-0.44
				c-0.59-0.3-1.05-0.72-1.37-1.25c-0.32-0.53-0.48-1.14-0.48-1.81c0-0.67,0.16-1.27,0.47-1.8c0.32-0.54,0.76-0.96,1.3-1.25
				c0.56-0.3,1.18-0.46,1.86-0.46c0.67,0,1.27,0.14,1.81,0.43c0.54,0.29,0.96,0.7,1.27,1.24c0.31,0.53,0.47,1.15,0.47,1.86
				C109.09,29.36,109.07,29.54,109.05,29.87z M118.75,32.72h-1.9l-1.53-4.23l-1.58,4.23h-1.9l-2.46-6.82h1.86l1.61,4.61l1.67-4.61
				h1.67l1.62,4.61l1.66-4.61h1.75L118.75,32.72z"/>
		</g>
		<g>
			<path class="st3" d="M77.41,78.23c-0.52-0.2-0.92-0.45-1.21-0.76l0.26-0.42c0.27,0.29,0.64,0.52,1.11,0.71
				c0.46,0.18,0.95,0.27,1.46,0.27c0.74,0,1.3-0.14,1.68-0.42c0.38-0.28,0.57-0.65,0.57-1.1c0-0.35-0.1-0.63-0.3-0.83
				c-0.2-0.21-0.45-0.37-0.74-0.48c-0.3-0.11-0.7-0.23-1.2-0.34c-0.57-0.14-1.03-0.28-1.37-0.41c-0.34-0.13-0.64-0.34-0.88-0.62
				c-0.24-0.28-0.36-0.65-0.36-1.12c0-0.38,0.1-0.72,0.3-1.04c0.2-0.31,0.51-0.56,0.92-0.75c0.41-0.18,0.92-0.28,1.54-0.28
				c0.43,0,0.85,0.06,1.27,0.19c0.41,0.13,0.77,0.3,1.08,0.51l-0.21,0.46c-0.31-0.21-0.65-0.38-1.03-0.49
				c-0.37-0.11-0.74-0.17-1.11-0.17c-0.72,0-1.26,0.14-1.63,0.43c-0.37,0.29-0.56,0.66-0.56,1.12c0,0.35,0.1,0.63,0.3,0.83
				c0.2,0.21,0.45,0.37,0.74,0.48c0.3,0.11,0.7,0.23,1.21,0.36c0.57,0.14,1.03,0.28,1.37,0.41c0.34,0.13,0.63,0.34,0.87,0.61
				c0.24,0.27,0.36,0.64,0.36,1.09c0,0.38-0.1,0.72-0.31,1.03s-0.52,0.56-0.94,0.74c-0.42,0.19-0.94,0.28-1.56,0.28
				C78.46,78.52,77.92,78.42,77.41,78.23z"/>
			<path class="st3" d="M87.98,71.12c-0.09-0.09-0.13-0.19-0.13-0.32c0-0.13,0.04-0.23,0.13-0.32c0.09-0.09,0.2-0.13,0.32-0.13
				c0.13,0,0.23,0.04,0.32,0.13c0.09,0.09,0.13,0.19,0.13,0.32c0,0.13-0.04,0.23-0.13,0.32c-0.09,0.09-0.2,0.13-0.32,0.13
				C88.18,71.25,88.07,71.21,87.98,71.12z M88.03,72.66h0.56v5.8h-0.56V72.66z"/>
			<path class="st3" d="M104.29,73.25c0.41,0.42,0.62,1.03,0.62,1.82v3.39h-0.56v-3.35c0-0.65-0.16-1.15-0.48-1.49
				c-0.32-0.34-0.76-0.51-1.33-0.51c-0.65,0-1.17,0.2-1.55,0.61c-0.38,0.41-0.57,0.96-0.57,1.65v3.09h-0.56v-3.35
				c0-0.65-0.16-1.15-0.48-1.49c-0.32-0.34-0.76-0.51-1.33-0.51c-0.65,0-1.17,0.2-1.55,0.61c-0.38,0.41-0.57,0.96-0.57,1.65v3.09
				h-0.56v-5.8h0.53v1.24c0.19-0.41,0.48-0.72,0.86-0.95c0.38-0.23,0.84-0.34,1.36-0.34c0.53,0,0.97,0.12,1.34,0.36
				c0.37,0.24,0.63,0.59,0.78,1.04c0.19-0.43,0.49-0.77,0.91-1.02c0.41-0.25,0.89-0.38,1.44-0.38
				C103.32,72.62,103.88,72.83,104.29,73.25z"/>
			<path class="st3" d="M116.02,73c0.44,0.25,0.78,0.6,1.03,1.05c0.25,0.44,0.37,0.95,0.37,1.52c0,0.57-0.12,1.08-0.37,1.53
				c-0.25,0.45-0.59,0.8-1.03,1.04c-0.44,0.25-0.93,0.37-1.47,0.37c-0.51,0-0.97-0.12-1.39-0.36c-0.42-0.24-0.74-0.58-0.97-1.01
				v3.48h-0.56v-7.96h0.53v1.37c0.23-0.44,0.55-0.79,0.97-1.04c0.42-0.25,0.89-0.37,1.41-0.37C115.1,72.62,115.59,72.74,116.02,73z
				 M115.72,77.7c0.36-0.21,0.64-0.5,0.84-0.87c0.2-0.37,0.31-0.79,0.31-1.27c0-0.47-0.1-0.9-0.31-1.27
				c-0.2-0.37-0.48-0.66-0.84-0.87c-0.36-0.21-0.76-0.31-1.2-0.31c-0.44,0-0.84,0.1-1.19,0.31c-0.35,0.21-0.63,0.5-0.83,0.87
				c-0.2,0.37-0.31,0.79-0.31,1.27c0,0.47,0.1,0.9,0.31,1.27c0.2,0.37,0.48,0.66,0.83,0.87c0.35,0.21,0.75,0.31,1.19,0.31
				C114.97,78.01,115.37,77.9,115.72,77.7z"/>
			<path class="st3" d="M123.59,70.22h0.56v8.25h-0.56V70.22z"/>
			<path class="st3" d="M130.89,71.12c-0.09-0.09-0.13-0.19-0.13-0.32c0-0.13,0.04-0.23,0.13-0.32c0.09-0.09,0.2-0.13,0.32-0.13
				c0.13,0,0.23,0.04,0.32,0.13c0.09,0.09,0.13,0.19,0.13,0.32c0,0.13-0.04,0.23-0.13,0.32c-0.09,0.09-0.2,0.13-0.32,0.13
				C131.09,71.25,130.98,71.21,130.89,71.12z M130.94,72.66h0.56v5.8h-0.56V72.66z"/>
			<path class="st3" d="M138.94,71.82v0.85h1.86v0.48h-1.85v5.32h-0.56v-5.32h-1.07v-0.48h1.07v-0.89c0-0.49,0.14-0.88,0.42-1.17
				c0.28-0.29,0.68-0.43,1.19-0.43c0.22,0,0.44,0.03,0.64,0.09c0.2,0.06,0.37,0.16,0.51,0.28l-0.22,0.42
				c-0.24-0.21-0.54-0.32-0.9-0.32C139.3,70.65,138.94,71.04,138.94,71.82z"/>
			<path class="st3" d="M151.14,72.66l-2.98,6.59c-0.22,0.51-0.48,0.87-0.77,1.09c-0.29,0.21-0.64,0.32-1.04,0.32
				c-0.27,0-0.52-0.04-0.75-0.13c-0.23-0.09-0.43-0.22-0.59-0.39l0.28-0.42c0.3,0.3,0.66,0.46,1.08,0.46c0.28,0,0.52-0.08,0.72-0.23
				c0.2-0.16,0.39-0.42,0.56-0.8l0.31-0.7l-2.61-5.78h0.59l2.32,5.19l2.32-5.19H151.14z"/>
			<path class="st3" d="M156.76,71.12c-0.09-0.09-0.13-0.19-0.13-0.32c0-0.13,0.04-0.23,0.13-0.32c0.09-0.09,0.2-0.13,0.32-0.13
				s0.23,0.04,0.32,0.13c0.09,0.09,0.13,0.19,0.13,0.32c0,0.13-0.04,0.23-0.13,0.32c-0.09,0.09-0.2,0.13-0.32,0.13
				S156.85,71.21,156.76,71.12z M156.8,72.66h0.56v5.8h-0.56V72.66z"/>
			<path class="st3" d="M168.7,73.25c0.42,0.42,0.63,1.03,0.63,1.82v3.39h-0.56v-3.35c0-0.65-0.16-1.15-0.49-1.49
				c-0.33-0.34-0.79-0.51-1.38-0.51c-0.68,0-1.22,0.2-1.61,0.61c-0.39,0.41-0.59,0.96-0.59,1.65v3.09h-0.56v-5.8h0.53v1.26
				c0.2-0.41,0.5-0.73,0.89-0.96c0.4-0.23,0.87-0.34,1.41-0.34C167.71,72.62,168.28,72.83,168.7,73.25z"/>
			<path class="st3" d="M181.31,72.66v5.18c0,0.96-0.23,1.67-0.7,2.13c-0.47,0.46-1.17,0.69-2.11,0.69c-0.53,0-1.04-0.08-1.51-0.24
				c-0.47-0.16-0.86-0.39-1.14-0.68l0.3-0.42c0.29,0.27,0.64,0.47,1.04,0.62c0.41,0.15,0.84,0.22,1.3,0.22
				c0.77,0,1.34-0.18,1.71-0.55c0.37-0.37,0.56-0.94,0.56-1.71v-0.98c-0.24,0.42-0.57,0.75-0.99,0.98c-0.42,0.23-0.9,0.34-1.42,0.34
				c-0.54,0-1.03-0.12-1.47-0.36c-0.44-0.24-0.79-0.58-1.04-1.01c-0.25-0.43-0.38-0.92-0.38-1.46c0-0.54,0.13-1.03,0.38-1.46
				c0.25-0.43,0.6-0.76,1.04-1c0.44-0.24,0.93-0.36,1.47-0.36c0.53,0,1.02,0.12,1.44,0.36c0.43,0.24,0.76,0.57,0.99,1v-1.31H181.31z
				 M179.61,77.46c0.36-0.2,0.65-0.47,0.85-0.82c0.2-0.35,0.31-0.75,0.31-1.21c0-0.45-0.1-0.85-0.31-1.2
				c-0.2-0.35-0.49-0.62-0.85-0.82s-0.77-0.29-1.22-0.29c-0.45,0-0.86,0.1-1.22,0.29c-0.36,0.2-0.64,0.47-0.85,0.82
				c-0.2,0.35-0.31,0.75-0.31,1.2c0,0.45,0.1,0.85,0.31,1.21c0.2,0.35,0.49,0.63,0.85,0.82c0.36,0.2,0.76,0.29,1.22,0.29
				C178.84,77.75,179.25,77.65,179.61,77.46z"/>
			<path class="st3" d="M196.01,78.23c-0.52-0.2-0.92-0.45-1.21-0.76l0.26-0.42c0.27,0.29,0.64,0.52,1.11,0.71
				c0.46,0.18,0.95,0.27,1.46,0.27c0.74,0,1.3-0.14,1.68-0.42c0.38-0.28,0.57-0.65,0.57-1.1c0-0.35-0.1-0.63-0.3-0.83
				c-0.2-0.21-0.45-0.37-0.74-0.48c-0.3-0.11-0.7-0.23-1.2-0.34c-0.57-0.14-1.03-0.28-1.37-0.41c-0.34-0.13-0.64-0.34-0.88-0.62
				c-0.24-0.28-0.36-0.65-0.36-1.12c0-0.38,0.1-0.72,0.3-1.04c0.2-0.31,0.51-0.56,0.92-0.75c0.41-0.18,0.92-0.28,1.54-0.28
				c0.43,0,0.85,0.06,1.27,0.19c0.42,0.13,0.77,0.3,1.08,0.51l-0.21,0.46c-0.31-0.21-0.65-0.38-1.03-0.49
				c-0.37-0.11-0.74-0.17-1.11-0.17c-0.72,0-1.26,0.14-1.63,0.43c-0.37,0.29-0.56,0.66-0.56,1.12c0,0.35,0.1,0.63,0.3,0.83
				c0.2,0.21,0.45,0.37,0.74,0.48s0.7,0.23,1.21,0.36c0.57,0.14,1.03,0.28,1.37,0.41c0.34,0.13,0.63,0.34,0.87,0.61
				c0.24,0.27,0.36,0.64,0.36,1.09c0,0.38-0.1,0.72-0.31,1.03c-0.2,0.31-0.52,0.56-0.94,0.74c-0.42,0.19-0.94,0.28-1.56,0.28
				C197.07,78.52,196.52,78.42,196.01,78.23z"/>
			<path class="st3" d="M207.41,78.13c-0.44-0.25-0.79-0.6-1.04-1.05s-0.38-0.95-0.38-1.52c0-0.56,0.13-1.07,0.38-1.52
				c0.25-0.45,0.6-0.8,1.04-1.05c0.44-0.25,0.94-0.38,1.48-0.38c0.55,0,1.04,0.13,1.48,0.38c0.44,0.25,0.79,0.6,1.04,1.05
				c0.25,0.45,0.38,0.95,0.38,1.52c0,0.56-0.13,1.07-0.38,1.52s-0.6,0.8-1.04,1.05c-0.44,0.25-0.94,0.38-1.48,0.38
				C208.35,78.51,207.85,78.38,207.41,78.13z M210.09,77.7c0.35-0.21,0.63-0.5,0.83-0.87c0.2-0.37,0.31-0.79,0.31-1.27
				c0-0.47-0.1-0.9-0.31-1.27c-0.2-0.37-0.48-0.66-0.83-0.87c-0.35-0.21-0.75-0.31-1.2-0.31c-0.44,0-0.84,0.1-1.19,0.31
				c-0.35,0.21-0.63,0.5-0.83,0.87c-0.2,0.37-0.31,0.79-0.31,1.27c0,0.47,0.1,0.9,0.31,1.27c0.2,0.37,0.48,0.66,0.83,0.87
				c0.35,0.21,0.75,0.31,1.19,0.31C209.34,78.01,209.74,77.9,210.09,77.7z"/>
			<path class="st3" d="M223.04,72.66v5.8h-0.53v-1.24c-0.19,0.41-0.48,0.72-0.86,0.95c-0.38,0.23-0.82,0.34-1.33,0.34
				c-0.76,0-1.35-0.21-1.78-0.63c-0.43-0.42-0.64-1.03-0.64-1.82v-3.39h0.56v3.35c0,0.65,0.17,1.15,0.5,1.49
				c0.33,0.34,0.8,0.51,1.41,0.51c0.65,0,1.17-0.2,1.55-0.61c0.38-0.41,0.57-0.96,0.57-1.65v-3.09H223.04z"/>
			<path class="st3" d="M231.21,72.96c0.38-0.23,0.84-0.34,1.38-0.34v0.54l-0.13-0.01c-0.64,0-1.15,0.2-1.51,0.61
				c-0.36,0.4-0.54,0.97-0.54,1.68v3.02h-0.56v-5.8h0.53v1.27C230.56,73.51,230.84,73.18,231.21,72.96z"/>
			<path class="st3" d="M239.3,78.13c-0.44-0.25-0.79-0.6-1.04-1.05s-0.38-0.95-0.38-1.52c0-0.57,0.13-1.08,0.38-1.53
				c0.25-0.45,0.6-0.8,1.04-1.04c0.44-0.25,0.95-0.37,1.51-0.37c0.47,0,0.89,0.09,1.27,0.27c0.38,0.18,0.69,0.45,0.93,0.79
				l-0.41,0.3c-0.21-0.29-0.47-0.51-0.77-0.65c-0.31-0.14-0.65-0.22-1.02-0.22c-0.45,0-0.86,0.1-1.22,0.31
				c-0.36,0.2-0.64,0.49-0.85,0.86c-0.2,0.37-0.31,0.8-0.31,1.28c0,0.48,0.1,0.91,0.31,1.28c0.2,0.37,0.49,0.66,0.85,0.86
				c0.36,0.2,0.76,0.31,1.22,0.31c0.37,0,0.71-0.07,1.02-0.22c0.31-0.14,0.56-0.36,0.77-0.65l0.41,0.3
				c-0.24,0.35-0.55,0.61-0.93,0.79c-0.38,0.18-0.81,0.27-1.27,0.27C240.25,78.51,239.75,78.38,239.3,78.13z"/>
			<path class="st3" d="M249.09,71.12c-0.09-0.09-0.13-0.19-0.13-0.32c0-0.13,0.04-0.23,0.13-0.32c0.09-0.09,0.2-0.13,0.32-0.13
				c0.13,0,0.23,0.04,0.32,0.13c0.09,0.09,0.13,0.19,0.13,0.32c0,0.13-0.04,0.23-0.13,0.32c-0.09,0.09-0.2,0.13-0.32,0.13
				C249.28,71.25,249.17,71.21,249.09,71.12z M249.13,72.66h0.56v5.8h-0.56V72.66z"/>
			<path class="st3" d="M261.03,73.25c0.42,0.42,0.63,1.03,0.63,1.82v3.39h-0.56v-3.35c0-0.65-0.16-1.15-0.49-1.49
				c-0.33-0.34-0.79-0.51-1.38-0.51c-0.68,0-1.22,0.2-1.61,0.61c-0.39,0.41-0.59,0.96-0.59,1.65v3.09h-0.56v-5.8h0.53v1.26
				c0.2-0.41,0.5-0.73,0.89-0.96c0.4-0.23,0.87-0.34,1.41-0.34C260.04,72.62,260.61,72.83,261.03,73.25z"/>
			<path class="st3" d="M273.64,72.66v5.18c0,0.96-0.23,1.67-0.7,2.13c-0.47,0.46-1.17,0.69-2.11,0.69c-0.53,0-1.04-0.08-1.51-0.24
				c-0.47-0.16-0.86-0.39-1.14-0.68l0.3-0.42c0.29,0.27,0.64,0.47,1.04,0.62c0.41,0.15,0.84,0.22,1.3,0.22
				c0.77,0,1.34-0.18,1.71-0.55c0.37-0.37,0.56-0.94,0.56-1.71v-0.98c-0.24,0.42-0.57,0.75-0.99,0.98c-0.42,0.23-0.9,0.34-1.42,0.34
				c-0.54,0-1.03-0.12-1.47-0.36c-0.44-0.24-0.79-0.58-1.04-1.01c-0.25-0.43-0.38-0.92-0.38-1.46c0-0.54,0.13-1.03,0.38-1.46
				c0.25-0.43,0.6-0.76,1.04-1c0.44-0.24,0.93-0.36,1.47-0.36c0.53,0,1.02,0.12,1.44,0.36c0.43,0.24,0.76,0.57,0.99,1v-1.31H273.64z
				 M271.94,77.46c0.36-0.2,0.65-0.47,0.85-0.82c0.2-0.35,0.31-0.75,0.31-1.21c0-0.45-0.1-0.85-0.31-1.2
				c-0.2-0.35-0.49-0.62-0.85-0.82s-0.77-0.29-1.22-0.29c-0.45,0-0.86,0.1-1.22,0.29c-0.36,0.2-0.64,0.47-0.85,0.82
				c-0.2,0.35-0.31,0.75-0.31,1.2c0,0.45,0.1,0.85,0.31,1.21c0.2,0.35,0.49,0.63,0.85,0.82c0.36,0.2,0.76,0.29,1.22,0.29
				C271.17,77.75,271.57,77.65,271.94,77.46z"/>
		</g>
		<path class="st1" d="M35.24,69.64v1.56c-3.68-0.01-6.66,3.23-6.66-0.46l0.02-4.83l6.67,0.01L35.24,69.64z"/>
		<path class="st1" d="M35.27,65.95l-6.67-0.01c0-1.05-0.21-2.1-0.61-3.07c-0.4-0.97-0.99-1.86-1.74-2.61
			c-0.74-0.75-1.63-1.34-2.6-1.74c-0.97-0.4-2.02-0.61-3.07-0.62c-1.05,0-2.1,0.21-3.07,0.61c-0.97,0.4-1.86,0.99-2.61,1.74
			c-0.75,0.74-1.34,1.63-1.74,2.6c-0.34,0.83-0.54,1.7-0.6,2.59c-0.01,0.16-0.02,0.32-0.02,0.48l-6.67-0.01l0-0.09
			c0-0.01,0-0.01,0-0.02c0.02-1.89,0.4-3.76,1.13-5.51c0.74-1.78,1.83-3.4,3.19-4.76c1.37-1.36,2.99-2.44,4.77-3.18
			s3.7-1.11,5.63-1.11c1.93,0,3.84,0.39,5.62,1.13c1.78,0.74,3.4,1.83,4.76,3.19c1.36,1.37,2.44,2.99,3.18,4.77
			C34.89,62.11,35.27,64.02,35.27,65.95z"/>
		<g>
			<path class="st4" d="M67.75,66.18c0,0.01,0,0.01,0,0.02C67.75,66.19,67.75,66.18,67.75,66.18z"/>
			<path class="st5" d="M67.75,66.08L67.75,66.08c0,0.03,0,0.06,0,0.09C67.75,66.15,67.75,66.11,67.75,66.08z"/>
		</g>
		<polygon class="st0" points="44.73,53.9 47.23,60.43 30.65,76.75 24.94,72.96 		"/>
		<path class="st0" d="M31.05,76.32c-2.11,2.14-4.82,3.59-7.78,4.14c-2.96,0.55-6.01,0.18-8.75-1.05c-2.74-1.24-5.03-3.29-6.57-5.87
			c-1.38-2.31-2.09-4.95-2.07-7.63l6.67,0.01c-0.02,1.48,0.37,2.93,1.13,4.2c0.84,1.41,2.09,2.53,3.59,3.21
			c1.5,0.68,3.17,0.88,4.78,0.57c1.61-0.3,3.1-1.09,4.25-2.26L31.05,76.32z"/>
		<path class="st0" d="M42.48,55.76c2.11-2.14,4.82-3.59,7.78-4.14c2.96-0.55,6.01-0.18,8.75,1.05c2.74,1.24,5.03,3.29,6.57,5.87
			c1.38,2.31,2.09,4.95,2.07,7.63l-6.67-0.01c0.02-1.48-0.37-2.93-1.13-4.2c-0.84-1.41-2.09-2.53-3.59-3.21
			c-1.5-0.68-3.17-0.88-4.78-0.57c-1.61,0.3-3.1,1.09-4.25,2.26L42.48,55.76z"/>
		<path class="st1" d="M38.26,66.12l6.67,0.01c0,1.05,0.21,2.1,0.61,3.07c0.4,0.97,0.99,1.86,1.74,2.61
			c0.74,0.75,1.63,1.34,2.6,1.74c0.97,0.4,2.02,0.61,3.07,0.62s2.1-0.21,3.07-0.61s1.86-0.99,2.61-1.74
			c0.75-0.74,1.34-1.63,1.74-2.6c0.34-0.83,0.54-1.7,0.6-2.59c0.01-0.16,0.02-0.32,0.02-0.48l6.67,0.01l0,0.09c0,0.01,0,0.01,0,0.02
			c-0.02,1.89-0.4,3.76-1.13,5.51c-0.74,1.78-1.83,3.4-3.19,4.76c-1.37,1.36-2.99,2.44-4.77,3.18c-1.78,0.74-3.7,1.11-5.63,1.11
			c-1.93,0-3.84-0.39-5.62-1.13c-1.78-0.74-3.4-1.83-4.76-3.19c-1.36-1.37-2.44-2.99-3.18-4.77C38.63,69.96,38.25,68.05,38.26,66.12
			z"/>
		<path class="st2" d="M38.29,43.32v3.11c3.68,0.01,6.66-3.6,6.66,0.08l-0.02,19.66l-6.67-0.01L38.29,43.32z"/>
		<rect x="5.88" y="41.65" class="st2" width="61.77" height="5.67"/>
		<path class="st6" d="M36.22,38.59c-11.34,2.2-21.73,0.63-30.55-3.46c0.94-0.94,1.57-1.89,2.52-2.83c0-1.26,0-2.52-0.31-3.78
			C12.92,31.98,23.94,37.97,36.22,38.59z"/>
		<path class="st7" d="M56.63,20.77c2.89,2.89,2.89,7.79,0,10.68c-2.89,2.89-9.79,2.89-14.01,3.34c0.44-4.23,0.44-11.12,3.34-14.01
			C48.85,17.88,53.74,17.88,56.63,20.77z M47.29,30.12c2.67-0.44,5.56-0.89,6.45-1.56c1.11-1.33,1.11-3.56,0-4.89
			c-1.33-1.11-3.56-1.11-4.89,0C48.18,24.55,47.73,27.45,47.29,30.12z"/>
		<path class="st8" d="M21.42,15.29c-4.41,4.09-4.41,11.02,0,15.12c3.78,4.09,13.86,4.09,19.52,4.72
			c-0.63-5.98-0.63-15.75-4.41-19.84C32.13,11.2,25.51,11.2,21.42,15.29z M34.33,28.52c-3.78-0.63-7.56-1.26-8.82-2.2
			c-1.89-1.89-1.89-5.04,0-6.93c1.89-1.57,4.72-1.57,6.61,0C33.39,20.64,34.02,24.74,34.33,28.52z"/>
		<path class="st6" d="M46.18,37.23c8.01,1.56,15.35,0.44,21.58-2.45c-0.67-0.67-1.33-1.33-1.78-2c0-0.89,0-1.78,0-2.67
			C62.64,32.56,54.85,36.79,46.18,37.23z"/>
	</g>
</g>
</svg>
