<?xml version="1.0" encoding="utf-8"?>
<!-- Generator: Adobe Illustrator 27.0.0, SVG Export Plug-In . SVG Version: 6.00 Build 0)  -->
<svg version="1.1" id="Layer_1" xmlns="http://www.w3.org/2000/svg" xmlns:xlink="http://www.w3.org/1999/xlink" x="0px" y="0px"
	 viewBox="0 0 1258 321" style="enable-background:new 0 0 1258 321;" xml:space="preserve">
<style type="text/css">
	.st0{fill:#217EB3;}
	.st1{fill:#D32938;}
	.st2{fill:#2D9FD6;}
	.st3{fill:#D42106;}
	.st4{fill:#BC202F;}
	.st5{fill:#2390BD;}
	.st6{fill-rule:evenodd;clip-rule:evenodd;fill:#D32938;}
	.st7{fill-rule:evenodd;clip-rule:evenodd;fill:#2D9FD6;}
	.st8{fill-rule:evenodd;clip-rule:evenodd;fill:#217EB3;}
</style>
<g>
	<g>
		<path class="st0" d="M842.4,173.7c-5.4,0-9.9,1.5-13.6,4.6c-3.7,3.1-5.9,7.2-6.7,12.5h40.5c-0.8-5.2-3.1-9.3-6.7-12.4
			C852.2,175.3,847.7,173.7,842.4,173.7z M885,198.3c0,0.3-0.2,2.4-0.5,6.4h-62.3c1.1,5.1,3.8,9.1,8,12.1c4.2,3,9.4,4.4,15.6,4.4
			c4.3,0,8.1-0.6,11.3-1.8c3.4-1.3,6.5-3.4,9.3-6.1l12.7,13.8c-7.7,8.9-19.1,13.3-34,13.3c-9.3,0-17.5-1.8-24.6-5.4
			c-7.1-3.7-12.6-8.7-16.5-15.1c-3.9-6.4-5.8-13.7-5.8-21.9c0-8.1,1.9-15.3,5.7-21.7c3.9-6.5,9.1-11.6,15.8-15.1
			c6.7-3.7,14.2-5.5,22.5-5.5c8.1,0,15.3,1.7,21.9,5.2c6.5,3.5,11.6,8.5,15.3,15C883.2,182.3,885,189.8,885,198.3z M754.9,240.4
			c-8.8,0-16.7-1.8-23.7-5.4c-6.9-3.7-12.4-8.7-16.4-15.1c-3.9-6.4-5.8-13.7-5.8-21.9c0-8.2,1.9-15.4,5.8-21.9
			c4-6.4,9.4-11.4,16.4-15c7-3.7,14.9-5.5,23.7-5.5c8.7,0,16.2,1.8,22.6,5.5c6.5,3.6,11.3,8.7,14.2,15.4l-18.5,9.9
			c-4.3-7.5-10.5-11.3-18.5-11.3c-6.2,0-11.4,2-15.4,6.1c-4.1,4.1-6.1,9.6-6.1,16.7c0,7,2,12.6,6.1,16.7c4.1,4.1,9.2,6.1,15.4,6.1
			c8.2,0,14.3-3.8,18.5-11.3l18.5,10.1c-3,6.5-7.7,11.6-14.2,15.3C771.1,238.6,763.5,240.4,754.9,240.4z M673.4,167.8
			c2.9-4,6.7-7,11.5-9c4.9-2,10.5-3.1,16.8-3.1v22c-2.7-0.2-4.4-0.3-5.4-0.3c-6.8,0-12.2,1.9-16.1,5.8c-3.9,3.8-5.8,9.5-5.8,17.1
			v38.8h-23.9v-82.3h22.8V167.8z M628.5,156.9v82.3h-22.6v-9.8c-3.2,3.6-6.9,6.3-11.3,8.3c-4.4,1.8-9.1,2.8-14.2,2.8
			c-10.8,0-19.4-3.1-25.7-9.3c-6.3-6.2-9.5-15.4-9.5-27.7v-46.5H569v43c0,13.3,5.6,19.9,16.7,19.9c5.7,0,10.3-1.8,13.8-5.5
			c3.5-3.8,5.2-9.3,5.2-16.7v-40.7H628.5z M484.5,220.8c6.1,0,11.1-2,15-6.1c4-4.2,6-9.7,6-16.7c0-6.9-2-12.4-6-16.5
			c-3.9-4.2-8.9-6.3-15-6.3c-6.1,0-11.2,2.1-15.1,6.3c-4,4.1-6,9.6-6,16.5c0,6.9,2,12.5,6,16.7C473.3,218.8,478.4,220.8,484.5,220.8
			z M484.5,240.4c-8.7,0-16.5-1.8-23.4-5.4c-6.8-3.7-12.2-8.7-16.1-15.1c-3.9-6.4-5.8-13.7-5.8-21.9c0-8.2,1.9-15.4,5.8-21.9
			c3.9-6.4,9.2-11.4,16.1-15c6.9-3.7,14.7-5.5,23.4-5.5s16.4,1.8,23.2,5.5c6.8,3.6,12.2,8.6,16.1,15c3.9,6.4,5.8,13.7,5.8,21.9
			c0,8.2-1.9,15.4-5.8,21.9c-3.9,6.4-9.2,11.5-16.1,15.1C500.9,238.6,493.2,240.4,484.5,240.4z M384.7,241c-8.5,0-16.7-1.1-24.6-3.4
			c-7.9-2.3-14.2-5.4-19-9l8.4-18.7c4.6,3.4,10,6.1,16.4,8.1c6.3,2,12.6,3.1,19,3.1c7,0,12.2-1,15.6-3.1c3.4-2.1,5-4.9,5-8.4
			c0-2.5-1-4.6-3.1-6.3c-1.9-1.7-4.5-3.1-7.6-4.1c-3.1-1-7.2-2.1-12.5-3.4c-8.2-1.9-14.8-3.9-20-5.8c-5.2-1.9-9.7-5-13.5-9.3
			c-3.7-4.3-5.5-10-5.5-17.1c0-6.2,1.7-11.8,5-16.8c3.4-5.1,8.4-9.1,15.1-12.1c6.8-3,15.1-4.4,24.9-4.4c6.8,0,13.5,0.8,20,2.4
			c6.5,1.6,12.2,4,17.1,7l-7.6,18.8c-9.9-5.6-19.8-8.4-29.7-8.4c-6.9,0-12.1,1.1-15.4,3.4c-3.3,2.2-4.9,5.2-4.9,8.9
			c0,3.7,1.9,6.4,5.7,8.3c3.9,1.7,9.7,3.5,17.6,5.2c8.2,1.9,14.8,3.9,20,5.8c5.2,1.9,9.6,5,13.3,9.2c3.8,4.2,5.7,9.8,5.7,17
			c0,6.1-1.7,11.7-5.2,16.8c-3.4,5-8.5,9-15.3,11.9C402.8,239.5,394.5,241,384.7,241z"/>
		<path class="st1" d="M1196.1,227.3c5.6,0,10.7-1.3,15.3-3.8c4.6-2.7,8.2-6.4,10.7-11.2c2.7-4.8,4-10.2,4-16.4
			c0-6.1-1.3-11.6-4-16.4c-2.5-4.8-6.1-8.5-10.7-11c-4.6-2.7-9.7-4-15.3-4c-5.7,0-10.9,1.3-15.4,4c-4.5,2.5-8.1,6.2-10.7,11
			c-2.5,4.8-3.8,10.2-3.8,16.4c0,6.1,1.3,11.6,3.8,16.4c2.7,4.8,6.2,8.5,10.7,11.2C1185.2,226,1190.4,227.3,1196.1,227.3z
			 M1196.9,155.1c7.5,0,14.4,1.7,20.5,5.2c6.1,3.4,10.9,8.2,14.4,14.4s5.2,13.3,5.2,21.3c0,8-1.7,15-5.2,21.3
			c-3.5,6.2-8.3,11.1-14.4,14.5c-6.1,3.5-12.9,5.2-20.5,5.2c-6.7,0-12.8-1.4-18.2-4.3c-5.3-2.9-9.6-7-12.8-12.4v15.9h-10.4V122.6
			h10.9V171c3.4-5.2,7.6-9.1,12.8-11.8C1184.4,156.4,1190.3,155.1,1196.9,155.1z M1125,155.7v80.5h-10.4v-14.7
			c-2.9,4.9-6.8,8.7-11.8,11.5c-5,2.7-10.7,4-17.1,4c-10.5,0-18.8-2.9-24.9-8.7c-6-5.9-9-14.5-9-25.8v-46.6h10.9v45.6
			c0,8.5,2.1,14.9,6.3,19.3c4.2,4.4,10.1,6.6,17.9,6.6c8.5,0,15.1-2.5,20-7.6c4.9-5.2,7.3-12.4,7.3-21.6v-42.2H1125z M1019.8,129.1
			v107.1h-11.2v-49.4h-67v49.4h-11.3V129.1h11.3v47.7h67v-47.7H1019.8z"/>
		<g>
			<path class="st2" d="M473.8,73.3c-2,0-3.7,0.6-5.1,1.7c-1.4,1.1-2.2,2.7-2.5,4.7h15.2c-0.3-2-1.1-3.5-2.5-4.7
				C477.4,73.9,475.7,73.3,473.8,73.3z"/>
			<path class="st2" d="M402,48.5l-50.4,57.4h205L607,48.5H402z M450.6,97.9H443l-20-24.4v24.4h-9.2V57.7h7.7l20,24.4V57.7h9.2V97.9
				z M489.6,85h-23.4c0.4,1.9,1.4,3.4,3,4.5c1.6,1.1,3.5,1.7,5.9,1.7c1.6,0,3-0.2,4.2-0.7c1.3-0.5,2.4-1.3,3.5-2.3l4.8,5.2
				c-2.9,3.3-7.2,5-12.7,5c-3.5,0-6.6-0.7-9.2-2c-2.7-1.4-4.7-3.3-6.2-5.7c-1.5-2.4-2.2-5.1-2.2-8.2c0-3,0.7-5.7,2.1-8.2
				c1.5-2.4,3.4-4.3,5.9-5.7c2.5-1.4,5.3-2.1,8.4-2.1c3,0,5.8,0.7,8.2,2c2.4,1.3,4.4,3.2,5.7,5.6c1.4,2.4,2.1,5.2,2.1,8.4
				C489.8,82.7,489.7,83.5,489.6,85z M533.6,97.9H525L518,78.7l-7.2,19.2h-8.6L491.1,67h8.4l7.3,20.9l7.6-20.9h7.6l7.3,20.9
				l7.5-20.9h7.9L533.6,97.9z"/>
		</g>
		<g>
			<path class="st3" d="M346.2,304.2c-2.3-0.9-4.2-2-5.5-3.5l1.2-1.9c1.2,1.3,2.9,2.4,5,3.2c2.1,0.8,4.3,1.2,6.6,1.2
				c3.4,0,5.9-0.6,7.6-1.9c1.7-1.3,2.6-2.9,2.6-5c0-1.6-0.5-2.8-1.4-3.8c-0.9-0.9-2-1.7-3.4-2.2c-1.3-0.5-3.2-1-5.4-1.6
				c-2.6-0.6-4.7-1.3-6.2-1.9c-1.6-0.6-2.9-1.5-4-2.8c-1.1-1.3-1.6-2.9-1.6-5.1c0-1.7,0.5-3.3,1.4-4.7c0.9-1.4,2.3-2.6,4.2-3.4
				c1.9-0.8,4.2-1.3,7-1.3c1.9,0,3.9,0.3,5.7,0.9c1.9,0.6,3.5,1.3,4.9,2.3l-1,2.1c-1.4-1-3-1.7-4.7-2.2c-1.7-0.5-3.4-0.8-5-0.8
				c-3.3,0-5.7,0.7-7.4,2c-1.7,1.3-2.5,3-2.5,5.1c0,1.6,0.5,2.8,1.4,3.8c0.9,0.9,2,1.7,3.4,2.2c1.3,0.5,3.2,1,5.5,1.6
				c2.6,0.6,4.7,1.3,6.2,1.9c1.5,0.6,2.9,1.5,4,2.7c1.1,1.2,1.6,2.9,1.6,5c0,1.7-0.5,3.3-1.4,4.7c-0.9,1.4-2.3,2.5-4.3,3.4
				c-1.9,0.8-4.3,1.3-7.1,1.3C351,305.5,348.5,305,346.2,304.2z"/>
			<path class="st3" d="M394.1,272c-0.4-0.4-0.6-0.9-0.6-1.4c0-0.6,0.2-1.1,0.6-1.5c0.4-0.4,0.9-0.6,1.5-0.6c0.6,0,1.1,0.2,1.5,0.6
				c0.4,0.4,0.6,0.9,0.6,1.4c0,0.6-0.2,1.1-0.6,1.5s-0.9,0.6-1.5,0.6C395,272.5,394.5,272.3,394.1,272z M394.3,278.9h2.5v26.3h-2.5
				V278.9z"/>
			<path class="st3" d="M468,281.6c1.9,1.9,2.8,4.7,2.8,8.3v15.4h-2.5v-15.2c0-3-0.7-5.2-2.2-6.8c-1.4-1.5-3.5-2.3-6-2.3
				c-3,0-5.3,0.9-7,2.8c-1.7,1.8-2.6,4.3-2.6,7.5v14H448v-15.2c0-3-0.7-5.2-2.2-6.8c-1.4-1.5-3.5-2.3-6-2.3c-3,0-5.3,0.9-7,2.8
				c-1.7,1.8-2.6,4.3-2.6,7.5v14h-2.5v-26.3h2.4v5.6c0.9-1.8,2.2-3.3,3.9-4.3c1.7-1,3.8-1.5,6.2-1.5c2.4,0,4.4,0.5,6.1,1.6
				c1.7,1.1,2.8,2.7,3.6,4.7c0.9-1.9,2.2-3.5,4.1-4.6c1.9-1.1,4-1.7,6.5-1.7C463.6,278.7,466.2,279.7,468,281.6z"/>
			<path class="st3" d="M521.2,280.4c2,1.1,3.5,2.7,4.7,4.7c1.1,2,1.7,4.3,1.7,6.9c0,2.6-0.6,4.9-1.7,6.9c-1.1,2-2.7,3.6-4.7,4.7
				c-2,1.1-4.2,1.7-6.6,1.7c-2.3,0-4.4-0.5-6.3-1.6c-1.9-1.1-3.3-2.6-4.4-4.6V315h-2.5v-36.1h2.4v6.2c1-2,2.5-3.6,4.4-4.7
				c1.9-1.1,4-1.7,6.4-1.7C517,278.7,519.2,279.3,521.2,280.4z M519.9,301.8c1.6-0.9,2.9-2.3,3.8-3.9c0.9-1.7,1.4-3.6,1.4-5.7
				c0-2.1-0.5-4.1-1.4-5.7c-0.9-1.7-2.2-3-3.8-3.9c-1.6-0.9-3.4-1.4-5.4-1.4c-2,0-3.8,0.5-5.4,1.4c-1.6,0.9-2.9,2.3-3.8,3.9
				c-0.9,1.7-1.4,3.6-1.4,5.7c0,2.2,0.5,4.1,1.4,5.7c0.9,1.7,2.2,3,3.8,3.9s3.4,1.4,5.4,1.4C516.4,303.2,518.2,302.7,519.9,301.8z"
				/>
			<path class="st3" d="M555.5,267.9h2.5v37.4h-2.5V267.9z"/>
			<path class="st3" d="M588.6,272c-0.4-0.4-0.6-0.9-0.6-1.4c0-0.6,0.2-1.1,0.6-1.5c0.4-0.4,0.9-0.6,1.5-0.6c0.6,0,1.1,0.2,1.5,0.6
				c0.4,0.4,0.6,0.9,0.6,1.4c0,0.6-0.2,1.1-0.6,1.5s-0.9,0.6-1.5,0.6C589.5,272.5,589,272.3,588.6,272z M588.8,278.9h2.5v26.3h-2.5
				V278.9z"/>
			<path class="st3" d="M625.1,275.1v3.8h8.4v2.2h-8.4v24.1h-2.5v-24.1h-4.8v-2.2h4.8v-4c0-2.2,0.6-4,1.9-5.3c1.3-1.3,3.1-2,5.4-2
				c1,0,2,0.1,2.9,0.4c0.9,0.3,1.7,0.7,2.3,1.3l-1,1.9c-1.1-1-2.4-1.5-4.1-1.5C626.7,269.8,625.1,271.6,625.1,275.1z"/>
			<path class="st3" d="M680.4,278.9l-13.5,29.9c-1,2.3-2.2,4-3.5,4.9c-1.3,1-2.9,1.5-4.7,1.5c-1.2,0-2.3-0.2-3.4-0.6
				c-1.1-0.4-2-1-2.7-1.8l1.3-1.9c1.3,1.4,3,2.1,4.9,2.1c1.3,0,2.4-0.4,3.3-1.1c0.9-0.7,1.7-1.9,2.5-3.6l1.4-3.2l-11.8-26.2h2.7
				l10.5,23.5l10.5-23.5H680.4z"/>
			<path class="st3" d="M705.8,272c-0.4-0.4-0.6-0.9-0.6-1.4c0-0.6,0.2-1.1,0.6-1.5c0.4-0.4,0.9-0.6,1.5-0.6s1.1,0.2,1.5,0.6
				c0.4,0.4,0.6,0.9,0.6,1.4c0,0.6-0.2,1.1-0.6,1.5c-0.4,0.4-0.9,0.6-1.5,0.6S706.2,272.3,705.8,272z M706,278.9h2.5v26.3H706V278.9
				z"/>
			<path class="st3" d="M760,281.6c1.9,1.9,2.9,4.7,2.9,8.3v15.4h-2.5v-15.2c0-3-0.7-5.2-2.2-6.8c-1.5-1.5-3.6-2.3-6.3-2.3
				c-3.1,0-5.5,0.9-7.3,2.8c-1.8,1.8-2.7,4.3-2.7,7.5v14h-2.5v-26.3h2.4v5.7c0.9-1.8,2.3-3.3,4.1-4.3c1.8-1,3.9-1.6,6.4-1.6
				C755.5,278.7,758.1,279.7,760,281.6z"/>
			<path class="st3" d="M817.1,278.9v23.5c0,4.4-1.1,7.6-3.2,9.7c-2.1,2.1-5.3,3.1-9.6,3.1c-2.4,0-4.7-0.4-6.9-1.1
				c-2.1-0.7-3.9-1.8-5.2-3.1l1.4-1.9c1.3,1.2,2.9,2.2,4.7,2.8c1.8,0.7,3.8,1,5.9,1c3.5,0,6.1-0.8,7.8-2.5c1.7-1.7,2.5-4.2,2.5-7.7
				v-4.4c-1.1,1.9-2.6,3.4-4.5,4.4c-1.9,1-4.1,1.6-6.4,1.6c-2.5,0-4.7-0.5-6.7-1.6c-2-1.1-3.6-2.6-4.7-4.6c-1.1-1.9-1.7-4.1-1.7-6.6
				c0-2.5,0.6-4.7,1.7-6.6c1.1-1.9,2.7-3.5,4.7-4.5c2-1.1,4.2-1.6,6.7-1.6c2.4,0,4.6,0.5,6.5,1.6c1.9,1.1,3.4,2.6,4.5,4.5v-5.9
				H817.1z M809.4,300.7c1.6-0.9,2.9-2.1,3.9-3.7c0.9-1.6,1.4-3.4,1.4-5.5c0-2-0.5-3.9-1.4-5.4c-0.9-1.6-2.2-2.8-3.9-3.7
				c-1.6-0.9-3.5-1.3-5.5-1.3c-2,0-3.9,0.4-5.5,1.3c-1.6,0.9-2.9,2.1-3.8,3.7c-0.9,1.6-1.4,3.4-1.4,5.4c0,2,0.5,3.9,1.4,5.5
				c0.9,1.6,2.2,2.8,3.8,3.7c1.6,0.9,3.5,1.3,5.5,1.3C805.9,302,807.8,301.6,809.4,300.7z"/>
			<path class="st3" d="M883.7,304.2c-2.3-0.9-4.2-2-5.5-3.5l1.2-1.9c1.2,1.3,2.9,2.4,5,3.2c2.1,0.8,4.3,1.2,6.6,1.2
				c3.4,0,5.9-0.6,7.6-1.9c1.7-1.3,2.6-2.9,2.6-5c0-1.6-0.5-2.8-1.4-3.8c-0.9-0.9-2-1.7-3.4-2.2c-1.3-0.5-3.2-1-5.4-1.6
				c-2.6-0.6-4.7-1.3-6.2-1.9c-1.6-0.6-2.9-1.5-4-2.8c-1.1-1.3-1.6-2.9-1.6-5.1c0-1.7,0.5-3.3,1.4-4.7c0.9-1.4,2.3-2.6,4.2-3.4
				c1.9-0.8,4.2-1.3,7-1.3c1.9,0,3.9,0.3,5.7,0.9c1.9,0.6,3.5,1.3,4.9,2.3l-1,2.1c-1.4-1-3-1.7-4.7-2.2c-1.7-0.5-3.4-0.8-5-0.8
				c-3.3,0-5.7,0.7-7.4,2c-1.7,1.3-2.5,3-2.5,5.1c0,1.6,0.5,2.8,1.4,3.8c0.9,0.9,2,1.7,3.4,2.2c1.3,0.5,3.2,1,5.5,1.6
				c2.6,0.6,4.7,1.3,6.2,1.9c1.5,0.6,2.9,1.5,4,2.7c1.1,1.2,1.6,2.9,1.6,5c0,1.7-0.5,3.3-1.4,4.7c-0.9,1.4-2.3,2.5-4.3,3.4
				c-1.9,0.8-4.3,1.3-7.1,1.3C888.5,305.5,886.1,305,883.7,304.2z"/>
			<path class="st3" d="M935.4,303.7c-2-1.1-3.6-2.7-4.7-4.8c-1.1-2-1.7-4.3-1.7-6.9c0-2.6,0.6-4.8,1.7-6.9c1.1-2,2.7-3.6,4.7-4.8
				c2-1.1,4.2-1.7,6.7-1.7s4.7,0.6,6.7,1.7c2,1.1,3.6,2.7,4.7,4.8c1.1,2,1.7,4.3,1.7,6.9c0,2.6-0.6,4.8-1.7,6.9
				c-1.1,2-2.7,3.6-4.7,4.8c-2,1.1-4.2,1.7-6.7,1.7S937.4,304.9,935.4,303.7z M947.6,301.8c1.6-0.9,2.9-2.3,3.8-3.9
				c0.9-1.7,1.4-3.6,1.4-5.7c0-2.1-0.5-4.1-1.4-5.7c-0.9-1.7-2.2-3-3.8-3.9c-1.6-0.9-3.4-1.4-5.4-1.4c-2,0-3.8,0.5-5.4,1.4
				c-1.6,0.9-2.9,2.3-3.8,3.9c-0.9,1.7-1.4,3.6-1.4,5.7c0,2.2,0.5,4.1,1.4,5.7c0.9,1.7,2.2,3,3.8,3.9c1.6,0.9,3.4,1.4,5.4,1.4
				C944.2,303.2,946,302.7,947.6,301.8z"/>
			<path class="st3" d="M1006.3,278.9v26.3h-2.4v-5.6c-0.9,1.8-2.2,3.3-3.9,4.3c-1.7,1-3.7,1.5-6,1.5c-3.4,0-6.1-1-8.1-2.9
				c-1.9-1.9-2.9-4.7-2.9-8.3v-15.4h2.5v15.2c0,3,0.8,5.2,2.3,6.8c1.5,1.5,3.6,2.3,6.4,2.3c3,0,5.3-0.9,7-2.8
				c1.7-1.8,2.6-4.3,2.6-7.5v-14H1006.3z"/>
			<path class="st3" d="M1043.3,280.3c1.7-1,3.8-1.5,6.2-1.5v2.5l-0.6-0.1c-2.9,0-5.2,0.9-6.9,2.7c-1.6,1.8-2.5,4.4-2.5,7.6v13.7
				h-2.5v-26.3h2.4v5.7C1040.3,282.8,1041.6,281.3,1043.3,280.3z"/>
			<path class="st3" d="M1080,303.7c-2-1.1-3.6-2.7-4.7-4.8c-1.1-2-1.7-4.3-1.7-6.9c0-2.6,0.6-4.9,1.7-6.9c1.1-2,2.7-3.6,4.7-4.7
				c2-1.1,4.3-1.7,6.9-1.7c2.1,0,4,0.4,5.8,1.2c1.7,0.8,3.1,2,4.2,3.6l-1.9,1.4c-0.9-1.3-2.1-2.3-3.5-2.9c-1.4-0.7-2.9-1-4.6-1
				c-2,0-3.9,0.5-5.5,1.4c-1.6,0.9-2.9,2.2-3.8,3.9c-0.9,1.7-1.4,3.6-1.4,5.8c0,2.2,0.5,4.1,1.4,5.8c0.9,1.7,2.2,3,3.8,3.9
				c1.6,0.9,3.5,1.4,5.5,1.4c1.7,0,3.2-0.3,4.6-1c1.4-0.7,2.6-1.6,3.5-2.9l1.9,1.4c-1.1,1.6-2.5,2.8-4.2,3.6
				c-1.7,0.8-3.7,1.2-5.8,1.2C1084.3,305.4,1082,304.9,1080,303.7z"/>
			<path class="st3" d="M1124.3,272c-0.4-0.4-0.6-0.9-0.6-1.4c0-0.6,0.2-1.1,0.6-1.5c0.4-0.4,0.9-0.6,1.5-0.6c0.6,0,1.1,0.2,1.5,0.6
				c0.4,0.4,0.6,0.9,0.6,1.4c0,0.6-0.2,1.1-0.6,1.5c-0.4,0.4-0.9,0.6-1.5,0.6C1125.2,272.5,1124.7,272.3,1124.3,272z M1124.5,278.9
				h2.5v26.3h-2.5V278.9z"/>
			<path class="st3" d="M1178.4,281.6c1.9,1.9,2.9,4.7,2.9,8.3v15.4h-2.5v-15.2c0-3-0.7-5.2-2.2-6.8c-1.5-1.5-3.6-2.3-6.3-2.3
				c-3.1,0-5.5,0.9-7.3,2.8c-1.8,1.8-2.7,4.3-2.7,7.5v14h-2.5v-26.3h2.4v5.7c0.9-1.8,2.3-3.3,4.1-4.3c1.8-1,3.9-1.6,6.4-1.6
				C1173.9,278.7,1176.5,279.7,1178.4,281.6z"/>
			<path class="st3" d="M1235.6,278.9v23.5c0,4.4-1.1,7.6-3.2,9.7c-2.1,2.1-5.3,3.1-9.6,3.1c-2.4,0-4.7-0.4-6.9-1.1
				c-2.1-0.7-3.9-1.8-5.2-3.1l1.4-1.9c1.3,1.2,2.9,2.2,4.7,2.8c1.8,0.7,3.8,1,5.9,1c3.5,0,6.1-0.8,7.8-2.5c1.7-1.7,2.5-4.2,2.5-7.7
				v-4.4c-1.1,1.9-2.6,3.4-4.5,4.4c-1.9,1-4.1,1.6-6.4,1.6c-2.5,0-4.7-0.5-6.7-1.6c-2-1.1-3.6-2.6-4.7-4.6c-1.1-1.9-1.7-4.1-1.7-6.6
				c0-2.5,0.6-4.7,1.7-6.6c1.1-1.9,2.7-3.5,4.7-4.5c2-1.1,4.2-1.6,6.7-1.6c2.4,0,4.6,0.5,6.5,1.6c1.9,1.1,3.4,2.6,4.5,4.5v-5.9
				H1235.6z M1227.9,300.7c1.6-0.9,2.9-2.1,3.9-3.7c0.9-1.6,1.4-3.4,1.4-5.5c0-2-0.5-3.9-1.4-5.4c-0.9-1.6-2.2-2.8-3.9-3.7
				s-3.5-1.3-5.5-1.3c-2,0-3.9,0.4-5.5,1.3c-1.6,0.9-2.9,2.1-3.8,3.7c-0.9,1.6-1.4,3.4-1.4,5.4c0,2,0.5,3.9,1.4,5.5
				c0.9,1.6,2.2,2.8,3.8,3.7c1.6,0.9,3.5,1.3,5.5,1.3C1224.4,302,1226.2,301.6,1227.9,300.7z"/>
		</g>
		<path class="st1" d="M155.1,265.2v7c-16.7,0-30.2,14.6-30.2-2.1l0.1-21.9l30.2,0L155.1,265.2z"/>
		<path class="st1" d="M155.2,248.5l-30.2,0c0-4.8-0.9-9.5-2.8-13.9c-1.8-4.4-4.5-8.4-7.9-11.8c-3.4-3.4-7.4-6.1-11.8-7.9
			c-4.4-1.8-9.1-2.8-13.9-2.8s-9.5,0.9-13.9,2.8c-4.4,1.8-8.4,4.5-11.8,7.9c-3.4,3.4-6.1,7.4-7.9,11.8c-1.6,3.7-2.5,7.7-2.7,11.7
			c0,0.7-0.1,1.5-0.1,2.2l-30.2,0l0-0.4c0,0,0-0.1,0-0.1c0.1-8.6,1.8-17,5.1-25c3.4-8.1,8.3-15.4,14.5-21.6
			c6.2-6.2,13.5-11.1,21.6-14.4c8.1-3.3,16.8-5,25.5-5c8.7,0,17.4,1.7,25.5,5.1c8.1,3.4,15.4,8.3,21.6,14.5
			c6.2,6.2,11.1,13.5,14.4,21.6C153.5,231.1,155.2,239.8,155.2,248.5z"/>
		<g>
			<path class="st4" d="M302.4,249.5C302.4,249.6,302.4,249.6,302.4,249.5C302.4,249.6,302.4,249.6,302.4,249.5z"/>
			<path class="st5" d="M302.4,249.1L302.4,249.1c0,0.1,0,0.3,0,0.4C302.4,249.4,302.4,249.3,302.4,249.1z"/>
		</g>
		<polygon class="st0" points="198.1,193.9 209.4,223.5 134.3,297.5 108.4,280.3 		"/>
		<path class="st0" d="M136.1,295.5c-9.6,9.7-21.9,16.3-35.3,18.8c-13.4,2.5-27.2,0.8-39.7-4.8c-12.4-5.6-22.8-14.9-29.8-26.6
			c-6.2-10.5-9.5-22.4-9.4-34.6l30.2,0c-0.1,6.7,1.7,13.3,5.1,19.1c3.8,6.4,9.5,11.5,16.3,14.5c6.8,3.1,14.3,4,21.7,2.6
			c7.3-1.4,14-4.9,19.3-10.3L136.1,295.5z"/>
		<path class="st0" d="M187.9,202.3c9.6-9.7,21.9-16.3,35.3-18.8c13.4-2.5,27.2-0.8,39.7,4.8c12.4,5.6,22.8,14.9,29.8,26.6
			c6.2,10.5,9.5,22.4,9.4,34.6l-30.2,0c0.1-6.7-1.7-13.3-5.1-19.1c-3.8-6.4-9.5-11.5-16.3-14.5c-6.8-3.1-14.3-4-21.7-2.6
			s-14,4.9-19.3,10.3L187.9,202.3z"/>
		<path class="st1" d="M168.8,249.3l30.2,0c0,4.8,0.9,9.5,2.8,13.9c1.8,4.4,4.5,8.4,7.9,11.8c3.4,3.4,7.4,6.1,11.8,7.9
			c4.4,1.8,9.1,2.8,13.9,2.8c4.8,0,9.5-0.9,13.9-2.8c4.4-1.8,8.4-4.5,11.8-7.9c3.4-3.4,6.1-7.4,7.9-11.8c1.6-3.7,2.5-7.7,2.7-11.7
			c0-0.7,0.1-1.5,0.1-2.2l30.2,0l0,0.4c0,0,0,0.1,0,0.1c-0.1,8.6-1.8,17-5.1,25c-3.4,8.1-8.3,15.4-14.5,21.6
			c-6.2,6.2-13.5,11.1-21.6,14.4c-8.1,3.3-16.8,5-25.5,5s-17.4-1.7-25.5-5.1c-8.1-3.4-15.4-8.3-21.6-14.5
			c-6.2-6.2-11.1-13.5-14.4-21.6C170.5,266.7,168.7,258,168.8,249.3z"/>
		<path class="st2" d="M168.9,146v14.1c16.7,0,30.2-16.3,30.2,0.4l-0.1,89.1l-30.2,0L168.9,146z"/>
		<rect x="22" y="138.4" class="st2" width="280" height="25.7"/>
		<path class="st6" d="M159.5,124.5c-51.4,10-98.5,2.9-138.4-15.7c4.3-4.3,7.1-8.6,11.4-12.8c0-5.7,0-11.4-1.4-17.1
			C53.9,94.6,103.9,121.7,159.5,124.5z"/>
		<path class="st7" d="M252,43.8c13.1,13.1,13.1,35.3,0,48.4c-13.1,13.1-44.4,13.1-63.5,15.1c2-19.2,2-50.4,15.1-63.5
			C216.7,30.6,238.9,30.6,252,43.8z M209.7,86.1c12.1-2,25.2-4,29.2-7.1c5-6,5-16.1,0-22.2c-6-5-16.1-5-22.2,0
			C213.7,60.9,211.7,74,209.7,86.1z"/>
		<path class="st8" d="M92.4,18.9c-20,18.6-20,50,0,68.5c17.1,18.6,62.8,18.6,88.5,21.4c-2.9-27.1-2.9-71.4-20-89.9
			C141,0.4,111,0.4,92.4,18.9z M151,78.9c-17.1-2.9-34.3-5.7-40-10c-8.6-8.6-8.6-22.8,0-31.4c8.6-7.1,21.4-7.1,30,0
			C146.7,43.2,149.5,61.7,151,78.9z"/>
		<path class="st6" d="M204.6,118.4c36.3,7.1,69.6,2,97.8-11.1c-3-3-6-6-8.1-9.1c0-4,0-8.1,0-12.1C279.3,97.2,244,116.3,204.6,118.4
			z"/>
	</g>
</g>
</svg>
